<?xml version="1.0" encoding="UTF-8" standalone="no"?>
<!-- Created with Inkscape (http://www.inkscape.org/) -->

<svg
   width="210mm"
   height="297mm"
   viewBox="0 0 210 297"
   version="1.1"
   id="svg189"
   inkscape:version="1.1.1 (c3084ef, 2021-09-22)"
   sodipodi:docname="k8s.svg"
   xmlns:inkscape="http://www.inkscape.org/namespaces/inkscape"
   xmlns:sodipodi="http://sodipodi.sourceforge.net/DTD/sodipodi-0.dtd"
   xmlns="http://www.w3.org/2000/svg"
   xmlns:svg="http://www.w3.org/2000/svg">
  <sodipodi:namedview
     id="namedview191"
     pagecolor="#ffffff"
     bordercolor="#666666"
     borderopacity="1.0"
     inkscape:pageshadow="2"
     inkscape:pageopacity="0.0"
     inkscape:pagecheckerboard="0"
     inkscape:document-units="mm"
     showgrid="false"
     inkscape:zoom="0.64052329"
     inkscape:cx="397.33138"
     inkscape:cy="579.99452"
     inkscape:window-width="1312"
     inkscape:window-height="969"
     inkscape:window-x="0"
     inkscape:window-y="25"
     inkscape:window-maximized="0"
     inkscape:current-layer="layer1" />
  <defs
     id="defs186" />
  <g
     inkscape:label="Layer 1"
     inkscape:groupmode="layer"
     id="layer1">
    <path
       d="m 175.35736,100.98379 c -0.97342,-3.099117 -3.30964,-5.617153 -6.22992,-7.166713 L 109.74853,65.537602 c -1.55748,-0.77478 -3.30964,-0.968475 -4.86712,-0.968475 -1.55748,0 -3.30965,0 -4.86713,0.38739 l -59.37891,28.47317 c -2.920274,1.355865 -5.061808,3.873901 -5.840549,7.166713 l -14.601373,63.72567 c -0.584055,3.29282 0.194686,6.58563 2.141535,9.29737 l 41.078529,50.5544 c 2.33622,2.32434 5.645865,3.8739 8.955506,4.0676 h 65.414152 c 3.50432,0.38739 6.81397,-1.16217 8.9555,-4.0676 l 41.07853,-50.5544 c 1.94685,-2.71174 2.72559,-6.00455 2.33622,-9.29737 z"
       id="path10349"
       style="fill:#326de6;stroke-width:1.94189" />
    <path
       d="m 166.20717,161.80403 v 0 c -0.1947,0 -0.38937,0 -0.38937,-0.1937 0,-0.19371 -0.38937,-0.19371 -0.77874,-0.19371 -0.77874,-0.1937 -1.55748,-0.1937 -2.33622,-0.1937 -0.38937,0 -0.77874,0 -1.16811,-0.19371 h -0.19469 c -2.14154,-0.19371 -4.47776,-0.58108 -6.6193,-1.16217 -0.58405,-0.1937 -1.1681,-0.77478 -1.36279,-1.35587 0.1947,0 0,0 0,0 v 0 l -1.55748,-0.38738 c 0.77874,-5.61716 0.38937,-11.42801 -0.77874,-17.04517 -1.36279,-5.61715 -3.69901,-11.04061 -6.81397,-15.88299 l 1.16812,-1.16213 v 0 -0.19369 c 0,-0.58109 0.1947,-1.35587 0.58406,-1.74326 1.75216,-1.54956 3.50432,-2.71173 5.45117,-3.8739 v 0 c 0.38937,-0.19369 0.77874,-0.38739 1.16811,-0.58108 0.77874,-0.38739 1.3628,-0.77478 2.14154,-1.16217 0.19469,-0.1937 0.38937,-0.1937 0.58405,-0.38739 0.1947,-0.1937 0,-0.1937 0,-0.38739 v 0 c 1.75217,-1.35587 2.14154,-3.68021 0.77874,-5.42346 -0.58405,-0.77478 -1.75216,-1.35587 -2.72559,-1.35587 -0.97342,0 -1.94685,0.38739 -2.72559,0.96848 v 0 l -0.19469,0.19369 c -0.19468,0.1937 -0.38936,0.38739 -0.58405,0.38739 -0.58405,0.58109 -1.16811,1.16217 -1.55748,1.74326 -0.19468,0.38739 -0.58405,0.58108 -0.77874,0.77478 v 0 c -1.36279,1.54956 -3.11496,3.09912 -4.86712,4.26129 -0.38937,0.19369 -0.77874,0.38739 -1.16811,0.38739 -0.1947,0 -0.58406,0 -0.77874,-0.1937 h -0.19469 l -1.55748,0.96848 c -1.55747,-1.54956 -3.30964,-3.09912 -4.86712,-4.64868 -7.20334,-5.61716 -16.15885,-9.10367 -25.30904,-10.07215 l -0.19469,-1.54956 v 0 0.1937 c -0.58405,-0.38739 -0.77874,-0.96848 -0.97342,-1.54956 0,-2.130647 0,-4.261292 0.38937,-6.585633 v -0.193695 c 0,-0.38739 0.19469,-0.77478 0.19469,-1.16217 0.1947,-0.77478 0.1947,-1.54956 0.38937,-2.32434 v -1.162171 0 c 0.1947,-1.93695 -1.36279,-3.8739 -3.30964,-4.067595 -1.16811,-0.193696 -2.33622,0.38739 -3.30964,1.355865 -0.77874,0.77478 -1.16812,1.743255 -1.16812,2.71173 v 0 0.968476 c 0,0.77478 0.1947,1.54956 0.38938,2.32434 0.19469,0.38739 0.19469,0.77478 0.19469,1.16217 v 0.193695 c 0.38937,2.130646 0.38937,4.261291 0.38937,6.585628 -0.19469,0.58109 -0.38937,1.16217 -0.97342,1.54956 v 0.38739 0 l -0.1947,1.54956 c -2.141545,0.1937 -4.283078,0.58109 -6.619297,0.96848 -9.150195,1.93695 -17.521649,6.77933 -23.946254,13.55865 l -1.168108,-0.77478 h -0.194696 c -0.194696,0 -0.38937,0.1937 -0.778741,0.1937 -0.38937,0 -0.77874,-0.1937 -1.168111,-0.38739 -1.752152,-1.35587 -3.504316,-2.90543 -4.867112,-4.45499 v 0 c -0.194686,-0.38739 -0.584056,-0.58108 -0.778738,-0.77478 -0.584055,-0.58108 -0.973426,-1.16217 -1.557481,-1.74325 -0.194686,-0.1937 -0.389371,-0.1937 -0.584056,-0.38739 -0.194696,-0.1937 -0.194696,-0.1937 -0.194696,-0.1937 v 0 c -0.778727,-0.58108 -1.752153,-0.96847 -2.725579,-0.96847 -1.168107,0 -2.141534,0.38739 -2.725589,1.35586 -1.168108,1.74326 -0.778737,4.0676 0.778741,5.42346 v 0 c 0.194696,0 0.194696,0.1937 0.194696,0.1937 0,0 0.38937,0.38739 0.584055,0.38739 0.584056,0.38739 1.362793,0.77478 2.141534,1.16217 0.389371,0.19369 0.778741,0.38739 1.168112,0.58108 v 0 c 1.946848,1.16217 3.893697,2.32434 5.451179,3.8739 0.389366,0.38739 0.778737,1.16217 0.584052,1.74326 v -0.1937 0 l 1.168111,1.16217 c -0.194696,0.38739 -0.389381,0.58109 -0.584067,0.96848 -6.035234,9.49106 -8.566139,20.72537 -6.813972,31.76599 l -1.557481,0.38739 v 0 c 0,0.1937 -0.194696,0.1937 -0.194696,0.1937 -0.194697,0.58108 -0.778738,0.96848 -1.362793,1.35587 -2.141534,0.58108 -4.283072,0.96847 -6.619291,1.16217 v 0 c -0.38937,0 -0.778737,0 -1.168107,0.1937 -0.778741,0 -1.557482,0.19371 -2.336219,0.19371 -0.194697,0 -0.389371,0.19371 -0.778741,0.19371 -0.194696,0 -0.194696,0 -0.389371,0.1937 v 0 c -2.141534,0.38739 -3.50433,2.32434 -3.11496,4.45499 0,0 0,0 0,0 0.389371,1.74325 2.141534,2.90543 3.893701,2.71173 0.389371,0 0.584052,0 0.973423,-0.19371 v 0 c 0.194696,0 0.194696,0 0.194696,-0.1937 0,-0.19371 0.584055,0 0.778741,0 0.778741,-0.19371 1.557478,-0.58109 2.141533,-0.77478 0.389371,-0.19371 0.778741,-0.38739 1.168112,-0.38739 h 0.194696 c 2.141534,-0.77478 4.088382,-1.35587 6.424601,-1.74326 h 0.194697 c 0.584055,0 1.168111,0.19371 1.557481,0.58109 0.194696,0 0.194696,0.1937 0.194696,0.1937 v 0 l 1.752164,-0.1937 c 2.920275,8.90997 8.371454,16.85147 15.964166,22.66232 1.752167,1.35587 3.309646,2.51803 5.256494,3.48651 l -0.973422,1.35587 v 0 c 0,0.1937 0.194696,0.1937 0.194696,0.1937 0.389367,0.58109 0.389367,1.35587 0.194696,1.93695 -0.778737,1.93695 -1.946849,3.8739 -3.114956,5.61716 v 0.19371 c -0.194696,0.38739 -0.389371,0.58108 -0.778741,0.96847 -0.389371,0.38739 -0.778741,1.16217 -1.362797,1.93695 -0.194696,0.19371 -0.194696,0.38739 -0.38937,0.58108 0,0 0,0.19371 -0.194696,0.19371 v 0 c -0.973427,1.93695 -0.194697,4.26129 1.557478,5.22977 0.38937,0.1937 0.973426,0.38739 1.362796,0.38739 1.557478,0 2.920271,-0.96848 3.699012,-2.32434 v 0 c 0,0 0,-0.19371 0.194696,-0.19371 0,-0.19371 0.194697,-0.38739 0.389371,-0.58109 0.194696,-0.77477 0.584056,-1.35586 0.778741,-2.13064 l 0.38937,-1.16217 v 0 c 0.584052,-2.13065 1.557478,-4.0676 2.530904,-6.00455 0.389367,-0.58108 0.973423,-0.96847 1.557479,-1.16217 0.194696,0 0.194696,0 0.194696,-0.1937 v 0 l 0.778741,-1.54956 c 5.451179,2.13064 11.097043,3.09912 16.937591,3.09912 3.50433,0 7.00866,-0.38739 10.51299,-1.35587 2.14153,-0.38739 4.28306,-1.16217 6.22991,-1.74325 l 0.77874,1.35586 v 0 c 0.1947,0 0.1947,0 0.1947,0.19371 0.58405,0.1937 1.16811,0.58108 1.55748,1.16217 0.97342,1.93695 1.94685,3.8739 2.53091,6.00455 v 0.1937 l 0.38936,1.16217 c 0.1947,0.77478 0.38937,1.54956 0.77874,2.13064 0.1947,0.19371 0.1947,0.3874 0.38937,0.58109 0,0 0,0.19371 0.1947,0.19371 v 0 c 0.77874,1.35586 2.14153,2.32434 3.69902,2.32434 0.58405,0 0.97342,-0.19371 1.55747,-0.38739 0.77874,-0.38739 1.55748,-1.16217 1.75217,-2.13065 0.19469,-0.96847 0.19469,-1.93695 -0.1947,-2.90542 v 0 c 0,-0.19371 -0.1947,-0.19371 -0.1947,-0.19371 0,-0.19371 -0.19469,-0.38739 -0.38936,-0.58108 -0.38937,-0.77478 -0.77874,-1.35587 -1.3628,-1.93696 -0.1947,-0.38739 -0.38937,-0.58108 -0.77874,-0.96847 v -0.38739 c -1.36279,-1.74326 -2.33622,-3.68021 -3.11496,-5.61716 -0.19469,-0.58108 -0.19469,-1.35586 0.1947,-1.93694 0,-0.19371 0.1947,-0.19371 0.1947,-0.19371 v 0 l -0.58406,-1.54956 c 9.92894,-6.00455 17.52165,-15.30191 21.02598,-26.34253 l 1.55748,0.19371 v 0 c 0.19469,0 0.19469,-0.19371 0.19469,-0.19371 0.38937,-0.38739 0.97343,-0.58109 1.55749,-0.58109 h 0.19469 c 2.14154,0.38739 4.28307,0.96848 6.22992,1.74326 h 0.19469 c 0.38937,0.1937 0.77874,0.38739 1.16812,0.38739 0.77874,0.38739 1.36279,0.77478 2.14153,0.96847 0.1947,0 0.38937,0.19371 0.77874,0.19371 0.1947,0 0.1947,0 0.38937,0.19371 v 0 c 0.38937,0.1937 0.58405,0.1937 0.97342,0.1937 1.75217,0 3.30965,-1.16217 3.8937,-2.71173 -0.19469,-2.13065 -1.75216,-3.6802 -3.50433,-4.06759 z m -56.26395,-6.00454 -5.2565,2.51803 -5.256488,-2.51803 -1.362797,-5.61716 3.699015,-4.64868 h 5.84055 l 3.69901,4.64868 z m 31.73364,-12.59018 c 0.97343,4.0676 1.16812,8.13519 0.77874,12.20279 l -18.49507,-5.22977 v 0 c -1.75216,-0.38739 -2.72559,-2.13064 -2.33622,-3.8739 0.1947,-0.58108 0.38937,-0.96847 0.77874,-1.35586 l 14.60138,-13.17127 c 2.14153,3.48652 3.69901,7.36041 4.67243,11.42801 z m -10.51298,-18.59472 -15.96417,11.23431 c -1.3628,0.77478 -3.30964,0.58108 -4.28307,-0.77478 -0.38937,-0.38739 -0.58405,-0.77478 -0.58405,-1.35587 l -1.16811,-19.56319 c 8.56613,0.96847 16.15885,4.64868 21.9994,10.45953 z m -35.237979,-9.87845 3.893697,-0.77478 -0.973422,19.36951 v 0 c 0,1.74325 -1.557482,3.09911 -3.309645,3.09911 -0.584056,0 -0.973426,-0.1937 -1.557478,-0.38738 L 77.820197,124.61459 c 5.061812,-4.84238 11.291729,-8.32889 18.105704,-9.87845 z m -23.751568,17.04516 14.406688,12.78388 v 0 c 1.362797,1.16217 1.557482,3.09912 0.389371,4.45498 -0.389371,0.58109 -0.778741,0.77478 -1.557478,0.96848 l -18.884442,5.42346 c -0.584055,-8.13519 1.362793,-16.46408 5.645861,-23.6308 z m -3.309642,32.73447 19.273812,-3.29282 c 1.557478,0 3.11496,0.96848 3.309642,2.51803 0.194696,0.58109 0.194696,1.35587 -0.194697,1.93696 v 0 l -7.398031,17.81994 C 77.041445,179.0429 71.590266,172.26357 68.864677,164.51577 Z m 44.193489,24.01818 c -2.72559,0.58109 -5.45118,0.96848 -8.37146,0.96848 -4.08838,0 -8.371448,-0.77478 -12.265149,-1.93695 l 9.539569,-17.23886 c 0.97342,-1.16218 2.5309,-1.54956 3.89369,-0.77478 0.58406,0.38739 0.97343,0.77478 1.55748,1.35586 v 0 l 9.34488,16.85147 c -1.16811,0.19371 -2.33622,0.3874 -3.69901,0.77478 z m 23.75156,-16.85147 c -2.92027,4.64869 -7.00866,8.71628 -11.6811,11.62171 l -7.59271,-18.20734 c -0.38937,-1.54956 0.38937,-3.09912 1.75216,-3.68021 0.58406,-0.1937 1.16811,-0.38739 1.75217,-0.38739 l 19.4685,3.29282 c -0.97343,2.71173 -2.14154,5.22977 -3.69902,7.36041 z"
       id="path10351"
       style="fill:#ffffff;stroke-width:1.94189" />
  </g>
</svg>
